<svg width="18" height="18" viewBox="0 0 18 18" fill="none" xmlns="http://www.w3.org/2000/svg">
<path d="M3.00049 13.9425C3.00049 14.1414 2.92147 14.3322 2.78082 14.4728C2.64017 14.6135 2.4494 14.6925 2.25049 14.6925C2.05158 14.6925 1.86081 14.6135 1.72016 14.4728C1.57951 14.3322 1.50049 14.1414 1.50049 13.9425V9.375C1.50049 5.23275 4.85824 1.875 9.00049 1.875C13.1427 1.875 16.5005 5.23275 16.5005 9.375V11.6895C16.5005 11.8884 16.4215 12.0792 16.2808 12.2198C16.1402 12.3605 15.9494 12.4395 15.7505 12.4395C15.5516 12.4395 15.3608 12.3605 15.2202 12.2198C15.0795 12.0792 15.0005 11.8884 15.0005 11.6895V9.375C15.0005 7.7837 14.3683 6.25758 13.2431 5.13236C12.1179 4.00714 10.5918 3.375 9.00049 3.375C7.40919 3.375 5.88307 4.00714 4.75785 5.13236C3.63263 6.25758 3.00049 7.7837 3.00049 9.375V13.9425ZM3.00049 9.375H4.50049C4.89831 9.375 5.27984 9.53304 5.56115 9.81434C5.84245 10.0956 6.00049 10.4772 6.00049 10.875V14.625C6.00049 15.0228 5.84245 15.4044 5.56115 15.6857C5.27984 15.967 4.89831 16.125 4.50049 16.125H3.00049C2.60266 16.125 2.22113 15.967 1.93983 15.6857C1.65852 15.4044 1.50049 15.0228 1.50049 14.625V10.875C1.50049 10.4772 1.65852 10.0956 1.93983 9.81434C2.22113 9.53304 2.60266 9.375 3.00049 9.375ZM3.00049 10.875V14.625H4.50049V10.875H3.00049ZM13.5005 9.375H15.0005C15.3983 9.375 15.7798 9.53304 16.0611 9.81434C16.3425 10.0956 16.5005 10.4772 16.5005 10.875V14.625C16.5005 15.0228 16.3425 15.4044 16.0611 15.6857C15.7798 15.967 15.3983 16.125 15.0005 16.125H13.5005C13.1027 16.125 12.7211 15.967 12.4398 15.6857C12.1585 15.4044 12.0005 15.0228 12.0005 14.625V10.875C12.0005 10.4772 12.1585 10.0956 12.4398 9.81434C12.7211 9.53304 13.1027 9.375 13.5005 9.375ZM13.5005 10.875V14.625H15.0005V10.875H13.5005Z" fill="white"/>
</svg>
